<?xml version="1.0" encoding="UTF-8" standalone="no"?>
<!-- Created with Inkscape (http://www.inkscape.org/) -->

<svg
   version="1.1"
   id="svg59"
   width="894.94647"
   height="1321.7048"
   viewBox="0 0 894.94647 1321.7048"
   sodipodi:docname="vibe-janitor.svg"
   inkscape:version="1.2.1 (9c6d41e, 2022-07-14)"
   xmlns:inkscape="http://www.inkscape.org/namespaces/inkscape"
   xmlns:sodipodi="http://sodipodi.sourceforge.net/DTD/sodipodi-0.dtd"
   xmlns="http://www.w3.org/2000/svg"
   xmlns:svg="http://www.w3.org/2000/svg">
  <defs
     id="defs63" />
  <sodipodi:namedview
     id="namedview61"
     pagecolor="#ffffff"
     bordercolor="#000000"
     borderopacity="0.25"
     inkscape:showpageshadow="2"
     inkscape:pageopacity="0.0"
     inkscape:pagecheckerboard="0"
     inkscape:deskcolor="#d1d1d1"
     showgrid="false"
     inkscape:zoom="0.3853049"
     inkscape:cx="273.80913"
     inkscape:cy="604.7159"
     inkscape:window-width="1800"
     inkscape:window-height="1126"
     inkscape:window-x="0"
     inkscape:window-y="43"
     inkscape:window-maximized="0"
     inkscape:current-layer="g65" />
  <g
     inkscape:groupmode="layer"
     inkscape:label="Image"
     id="g65"
     transform="translate(-65.720642,-74.213402)">
    <path
       style="fill:#355355;fill-opacity:1"
       d="m 854.5,1392.4968 c -11.55,-1.823 -26.175,-4.0832 -32.5,-5.0225 -15.68401,-2.3294 -30.043,-5.2373 -32.71713,-6.6258 -4.37204,-2.2702 -4.2662,-4.8127 1.32583,-31.8476 2.90111,-14.0255 6.88627,-32.4759 8.85592,-41.0009 6.63805,-28.7307 6.96582,-29.3417 15.63454,-29.1464 12.95818,0.2919 86.36901,13.6302 89.5507,16.2708 3.14214,2.6077 3.27364,5.4518 0.88004,19.0342 -4.23524,24.0328 -7.51722,40.3418 -11.96437,59.4543 -4.98158,21.4092 -5.60943,22.4517 -13.42631,22.2928 -2.55157,-0.052 -14.08922,-1.5858 -25.63922,-3.4089 z m 31.8641,-42.7468 c 3.73186,-18.8375 7.3808,-36.6007 8.10877,-39.4738 l 1.32357,-5.2238 -3.14822,-0.5292 c -1.73152,-0.291 -13.04822,-2.3183 -25.14822,-4.505 -19.45031,-3.515 -48.0875,-8.0093 -51.07662,-8.0158 -1.07462,0 -3.02349,8.0935 -12.39664,51.4976 -2.73178,12.65 -5.22854,23.9005 -5.54836,25.0011 -0.54087,1.8614 0.48705,2.1946 14.72007,4.7718 8.41585,1.5239 24.52655,4.1554 35.80155,5.8479 17.35045,2.6045 27.59153,4.2279 30.03945,4.7616 0.2967,0.065 3.5928,-15.2949 7.32465,-34.1324 z m -33.99739,13.3319 c -6.80373,-4.1487 -8.21739,-9.3919 -3.11671,-11.5597 3.11166,-1.3225 3.38727,-1.2493 6.47498,1.7202 2.86541,2.7556 3.5065,2.9732 5.75,1.951 4.28722,-1.9534 3.33719,-5.5703 -3.33725,-12.7053 -3.22906,-3.4519 -6.1054,-7.5387 -6.40354,-9.0983 -1.43924,-7.5288 6.6789,-16.3898 15.01585,-16.3898 3.72741,0 5.00203,0.5521 7.84996,3.4 3.527,3.527 4.26296,6.337 2.2,8.4 -1.66251,1.6625 -5.30461,1.5018 -6.8,-0.3 -0.68469,-0.825 -2.24504,-1.5 -3.46746,-1.5 -2.13932,0 -5.53254,2.7591 -5.53254,4.4987 0,0.4626 2.925,3.871 6.5,7.574 5.8976,6.1089 6.5,7.1217 6.5,10.9289 0,5.4946 -2.58485,10.7741 -6.41996,13.1127 -4.03949,2.4633 -11.14535,2.4482 -15.21333,-0.032 z m -28.6808,-5.3882 C 818.06544,1355.9347 815,1352.5471 815,1348.095 c 0,-6.9394 4.19445,-8.1039 8.74751,-2.4283 5.17451,6.4501 6.33783,4.3685 9.87301,-17.6667 1.8902,-11.7818 2.89607,-14 6.34846,-14 3.54505,0 5.03102,1.7203 5.03102,5.8244 0,4.4996 -4.65953,27.425 -6.44032,31.687 -2.42213,5.797 -8.29946,8.2399 -14.87377,6.1823 z m -142.21015,25.9021 c -5.41031,-2.3425 -6.51374,-8.7976 -2.27513,-13.3094 2.95254,-3.1428 8.11031,-3.0664 11.34482,0.1681 6.42764,6.4277 -0.70542,16.7629 -9.06969,13.1413 z M 307.5,1379.3101 c -20.37627,-1.896 -50.13708,-11.5899 -67.95675,-22.1353 l -9.84093,-5.8237 -6.60116,1.8067 c -3.63064,0.9936 -9.26838,2.7679 -12.52831,3.9427 -7.30942,2.6343 -11.7926,2.236 -23.80655,-2.1149 -10.2512,-3.7125 -14.37809,-6.2858 -17.4925,-10.9073 -2.1832,-3.2396 -2.27342,-4.1949 -2.26417,-23.9762 0.005,-11.6125 0.66447,-26.4641 1.51038,-34.0365 l 1.50076,-13.4345 -2.3882,-2.5655 c -1.31351,-1.4111 -2.89959,-3.5605 -3.52462,-4.7765 -0.83975,-1.6336 -1.13104,-67.0475 -1.11579,-250.5666 l 0.0206,-248.35586 -14.25639,-9.90145 C 133.01276,745.53081 111.47983,729.40205 96.343301,717.20633 79.702141,703.79832 72.200567,694.49994 67.940181,682 c -1.801635,-5.28599 -2.21618,-8.74126 -2.21953,-18.5 -0.0092,-26.90634 9.828123,-54.3937 49.746249,-139 17.99492,-38.14015 34.29044,-69.73915 42.02933,-81.5 10.53611,-16.01181 21.44215,-25.66941 33.95351,-30.0668 6.39148,-2.24643 15.93577,-3.19384 49.05026,-4.86895 11.55,-0.58426 24.375,-1.27514 28.5,-1.53527 4.125,-0.26014 13.2375,-0.77152 20.25,-1.1364 L 302,404.72915 V 387.86457 371 h -2.8185 c -4.06739,0 -13.01952,-2.83107 -17.80769,-5.63158 -6.49236,-3.79728 -14.08952,-12.56221 -17.96874,-20.73073 -4.97868,-10.48369 -7.37916,-23.21888 -7.37715,-39.13769 0.002,-19.20439 3.24816,-30.26542 11.5907,-39.49962 C 270.95376,262.30879 281.70421,256 284.65972,256 c 1.87709,0 1.96801,-51.02885 0.0968,-54.31574 -1.74451,-3.06431 -1.68965,-45.07549 0.0753,-57.68426 3.28659,-23.479 8.40528,-36.01502 19.49137,-47.735697 12.9033,-13.641914 23.58947,-18.744838 41.47858,-19.807096 C 351.1358,76.140472 357.075,75.669042 359,75.409586 c 1.925,-0.259456 22.85,-0.731792 46.5,-1.049634 44.76917,-0.601672 76.1879,0.6246 106,4.137175 16.07125,1.893576 24.40381,5.40799 33.58452,14.164901 11.10171,10.589242 14.24501,21.301792 16.12176,54.943942 l 1.12162,20.10597 7.08605,2.25284 c 31.49989,10.01461 70.06151,32.38504 76.16283,44.18369 1.52714,2.95317 1.85473,7.65942 0.65791,9.45183 -2.77423,4.15479 -12.4646,4.40015 -34.23469,0.86682 -8.525,-1.38362 -22.3625,-2.79805 -30.75,-3.14317 L 566,220.69646 v 5.49621 C 566,238.73642 567.3183,253 568.47765,253 c 0.64555,0 2.15216,1.0415 3.34804,2.31445 2.28777,2.43523 3.04783,9.02765 1.17431,10.18555 -0.55,0.33992 -1,3.4348 -1,6.87752 0,7.69563 -1.97412,14.61556 -5.96392,20.90552 l -3.03394,4.78304 0.14136,32.80718 0.14136,32.80717 4.90722,5.90979 c 10.74037,12.93463 16.44842,29.67073 15.48757,45.40978 -1.07165,17.55413 -7.74215,27 -19.0669,27 -4.36985,0 -4.55306,0.12356 -5.56017,3.75 -0.57278,2.0625 -1.04394,4.03278 -1.047,4.37839 -0.003,0.34562 2.47655,2.54334 5.51025,4.88383 9.87658,7.61972 17.19574,18.96211 22.42436,34.75069 5.20699,15.72324 7.30527,33.99309 10.99536,95.73709 7.2684,121.61791 7.27395,143.72614 0.0438,174.3845 -8.64291,36.64869 -30.76596,83.68429 -60.59946,128.8399 L 525,905.94879 v 48.35109 48.35112 l 12.14681,13.9245 c 6.68075,7.6585 16.29942,18.6495 21.37484,24.4245 17.85523,20.3164 52.96576,60.6481 64.40854,73.9865 6.3634,7.4176 14.04481,16.0757 17.06981,19.2403 l 5.5,5.7538 13,-3.4404 c 7.15,-1.8922 21.54074,-6.3878 31.97943,-9.9903 24.17233,-8.342 24.31721,-8.3449 56.70847,-1.1482 13.37165,2.9709 28.06516,6.1588 32.65224,7.0842 9.73333,1.9636 19.30473,7.0596 22.1993,11.8193 2.70905,4.4547 3.19755,9.5843 2.15743,22.6543 l -0.91195,11.4595 -4.03766,3.5405 -4.03766,3.5405 3.40855,12 c 2.06183,7.2588 5.78703,16.8091 9.42849,24.1718 5.80492,11.737 9.08512,16.0267 18.3845,24.0425 3.1678,2.7305 3.29442,6.2865 0.31886,8.9545 -3.44132,3.0855 -31.66527,21.1259 -46.25,29.5623 -47.30911,27.3656 -94.30619,50.4289 -171,83.9163 -34.76184,15.1784 -30.5436,15.2297 -62.09837,-0.7561 L 523.5,1355.2827 504,1354.7021 c -30.66576,-0.9131 -44.6466,-4.4179 -84.10023,-21.0831 -3.46107,-1.4619 -3.84707,-1.404 -9.98579,1.4992 -5.13455,2.4283 -7.66176,3.0101 -12.89977,2.97 -6.61423,-0.051 -27.35605,-5.03 -29.37894,-7.0529 -2.37023,-2.3703 -2.37487,-0.6953 -0.0129,4.6456 5.77698,13.0628 5.27003,22.0868 -1.70908,30.4226 -4.98006,5.9481 -11.0767,9.1783 -21.57855,11.4327 -6.70018,1.4384 -28.93371,2.5091 -36.83479,1.7739 z m 28.25915,-14.2749 c 8.72144,-1.0029 16.21934,-3.7269 19.97839,-7.2584 3.35208,-3.1491 3.0482,-9.6767 -0.80428,-17.2768 -5.09323,-10.0478 -13.48686,-20.0628 -34.92496,-41.6713 l -20.5083,-20.6714 -11.00852,2.2941 c -20.87189,4.3495 -53.18446,5.8801 -73.99148,3.5048 -8.59113,-0.9808 -26.73864,-4.3431 -29.81713,-5.5244 -1.9274,-0.7396 -3.41431,7.8156 -4.31344,24.8182 -0.67412,12.7479 -0.67386,12.75 1.57108,12.75 5.64579,0 23.22248,4.3943 29.63435,7.4089 3.89118,1.8294 12.76917,7.2015 19.72889,11.938 19.08488,12.9884 34.04494,19.9709 53.69625,25.0623 18.76637,4.8622 35.46745,6.3842 50.75915,4.626 z M 572.2878,1359.75 c 0.30135,-2.3375 1.67421,-10.775 3.05079,-18.75 2.68688,-15.566 6.1703,-45.1413 7.26363,-61.6704 l 0.67273,-10.1705 -4.88748,-1.4712 c -2.68811,-0.8091 -19.05017,-6.0199 -36.36013,-11.5795 -17.30996,-5.5596 -31.82246,-10.1084 -32.25,-10.1084 -0.42754,0 -0.77734,1.2088 -0.77734,2.6862 0,11.3087 -13.34629,40.7572 -27.25835,60.1454 -3.28811,4.5824 -5.58762,8.7006 -5.11002,9.1515 1.01837,0.9615 17.9798,8.0169 19.27287,8.0169 1.9532,0 13.39219,-21.3274 16.67058,-31.0814 1.88371,-5.6045 3.42492,-10.7432 3.42492,-11.4194 0,-2.3326 4.13518,-6.4992 6.45014,-6.4992 3.47655,0 4.90412,2.3831 4.17163,6.9639 -1.16828,7.306 -7.46525,24.857 -12.81519,35.7188 -2.91862,5.9255 -5.45022,11.1019 -5.62578,11.5031 -0.27862,0.6367 22.86613,12.8142 24.35485,12.8142 1.49879,0 11.85354,-30.0801 12.90898,-37.5 0.95057,-6.6827 2.86516,-9.5 6.45598,-9.5 1.56997,0 3.42071,0.6822 4.11274,1.5161 2.48544,2.9948 -0.89633,19.6553 -8.07371,39.7758 -2.19557,6.1549 -3.64267,11.3243 -3.21579,11.4876 0.42688,0.1633 6.40115,3.3825 13.27615,7.1538 6.875,3.7713 12.77898,6.9041 13.11995,6.9618 0.34097,0.058 0.8665,-1.8076 1.16785,-4.1451 z m 38.41875,-6.8565 c 12.5364,-5.5496 23.1272,-10.4022 23.53513,-10.7835 0.40792,-0.3814 0.10551,-4.0496 -0.67202,-8.1517 -0.77754,-4.1021 -1.93339,-12.7941 -2.56857,-19.3156 -1.30695,-13.4186 -0.53573,-17.2194 3.71013,-18.2851 4.1112,-1.0318 5.20918,1.2561 6.32681,13.1837 1.75225,18.7004 3.35443,27.4587 5.02308,27.4587 1.36868,0 17.7022,-7.4645 41.24218,-18.8478 20.74123,-10.0299 20.79884,-10.0668 19.3116,-12.3561 -2.47692,-3.8127 -6.24984,-16.6242 -9.62109,-32.6699 -2.99441,-14.2521 -3.09019,-15.3301 -1.56843,-17.6526 1.89806,-2.8968 4.64476,-3.19 6.77886,-0.7236 0.83281,0.9625 2.52587,6.25 3.76234,11.75 4.18108,18.598 10.34323,35.5 12.94261,35.5 0.63225,0 24.94295,-12.708 25.93042,-13.5547 0.18678,-0.1601 -1.43568,-2.9133 -3.60547,-6.1182 -7.91639,-11.693 -9.05313,-16.0891 -4.86911,-18.8306 3.81055,-2.4968 6.67166,-0.6328 10.96142,7.1413 2.08263,3.7742 4.63537,7.8927 5.67276,9.1522 l 1.88614,2.29 8.05285,-4.0489 c 4.42907,-2.2269 8.28458,-4.0358 8.56781,-4.0197 0.75169,0.043 6.494,-2.9962 6.494,-3.4366 0,-0.2056 -1.62298,-2.7815 -3.60662,-5.7243 -5.13117,-7.6122 -8.68188,-14.9845 -12.28341,-25.504 -3.42467,-10.0029 -3.19799,-13.549 0.95028,-14.8656 3.04079,-0.9651 5.0311,1.522 8.4179,10.5191 3.84762,10.2213 7.62448,17.5337 12.18684,23.595 l 3.83501,5.0949 11.20614,-6.9017 11.20615,-6.9017 -4.56202,-6.1933 c -6.6629,-9.0453 -14.81367,-26.4972 -18.65304,-39.9387 -1.84522,-6.4601 -3.56268,-11.9533 -3.81657,-12.2072 -0.42939,-0.4294 -13.17464,4.7054 -104.88066,42.2543 -18.975,7.7693 -45.525,18.5489 -59,23.9548 l -24.5,9.8289 -0.23644,4.4573 c -1.02353,19.2957 -4.51567,50.5536 -8.63287,77.2722 l -2.28288,14.8147 2.28264,-0.5729 c 1.25546,-0.3151 12.5397,-5.1135 25.0761,-10.6631 z m -408.16377,-14.3974 -0.67029,-5.3648 -6.68624,-1.4777 c -3.67744,-0.8127 -8.66448,-1.7929 -11.08232,-2.1782 -4.26221,-0.6792 -4.37681,-0.6286 -3.76366,1.662 0.34783,1.2994 0.63857,3.141 0.64608,4.0923 0.008,1.0175 1.76352,2.6309 4.26365,3.9185 6.36774,3.2796 17.19821,6.7678 17.60653,5.6707 0.19609,-0.527 0.0549,-3.3722 -0.31375,-6.3228 z m 287.37389,1.1635 c -0.22917,-0.1873 -6.04167,-2.9419 -12.91667,-6.1214 -13.29792,-6.1499 -18,-9.5695 -18,-13.0903 0,-1.1979 1.82794,-4.8262 4.0621,-8.0629 7.35078,-10.6495 12.6112,-18.771 17.33775,-26.7675 l 4.65915,-7.8826 -4.2795,0.6952 c -11.8524,1.9253 -23.05224,2.6826 -40.7795,2.7575 -21.29604,0.09 -36.24243,-1.5385 -52.89679,-5.7632 -6.6355,-1.6832 -9.69943,-2.0777 -10.17392,-1.31 -0.76087,1.2311 -1.50936,7.2072 -2.51694,20.0959 -0.79642,10.1874 -2.43329,8.7314 15.58765,13.8655 6.325,1.8019 24.1,8.3292 39.5,14.505 15.4,6.1759 30.475,11.9427 33.5,12.8153 7.09246,2.0457 28.31698,5.4076 26.91667,4.2635 z M 360.51599,1317.25 c -0.34248,-11.4485 1.28629,-36.3828 2.85788,-43.75 1.39598,-6.544 1.37619,-7.1303 -0.30374,-9 -0.98834,-1.1 -2.23886,-2.8322 -2.77892,-3.8494 -0.6368,-1.1993 -0.81099,-59.632 -0.4956,-166.25 L 360.28193,930 344.39096,929.81681 c -16.44414,-0.18956 -20.44327,-0.11531 -20.90445,0.3881 -0.14868,0.1623 -0.54471,38.77009 -0.88005,85.79509 -1.60873,225.5872 -1.85884,247.5573 -2.84035,249.5 -0.55576,1.1 -2.14757,3.2196 -3.53733,4.7103 l -2.52685,2.7103 19.39903,19.8176 c 10.66947,10.8997 21.19904,22.371 23.39904,25.4918 2.2,3.1207 4.04903,5.6956 4.10896,5.722 0.0599,0.026 0.0181,-2.9895 -0.093,-6.702 z m 27.21318,5.1458 c -0.33229,-0.3323 -1.1948,-0.3678 -1.91667,-0.079 -0.79773,0.3192 -0.56078,0.5562 0.60417,0.6042 1.05416,0.043 1.64479,-0.193 1.3125,-0.5253 z m -108.20981,-54.2635 c 11.44051,-1.9559 25.2251,-5.5657 26.63868,-6.9758 0.36193,-0.3611 0.8234,-8.4521 1.0255,-17.9802 l 0.36746,-17.3236 -2.5255,0.5648 c -19.32323,4.3213 -32.61634,5.8022 -56.5255,6.297 -26.31395,0.5446 -41.7824,-0.5953 -62.25,-4.5875 l -9.25,-1.8042 v 17.6929 17.693 l 7.26137,2.1556 c 18.03244,5.3533 34.14438,7.0911 61.73863,6.6593 15.84229,-0.2479 24.66289,-0.8772 33.51936,-2.3913 z M 470.5,1265.442 c 6.05,-0.8402 13.475,-2.0979 16.5,-2.795 5.46956,-1.2603 5.5101,-1.2974 7.32508,-6.7071 1.0038,-2.992 2.05918,-7.4649 2.3453,-9.9399 0.46898,-4.0567 0.21533,-4.7893 -2.57508,-7.4371 -2.27992,-2.1634 -3.0953,-3.8345 -3.0953,-6.3438 v -3.4068 l -4.75,0.5768 c -35.96703,4.3674 -72.58452,2.7124 -110,-4.9716 L 373,1223.75 v 16.5848 16.5848 l 6.43046,1.9862 c 14.8966,4.6011 31.08971,7.4426 47.56954,8.3472 10.32541,0.5668 33.25061,-0.3877 43.5,-1.811 z M 581,1245.6975 v -8.3024 l -4.75,-1.66 C 566.08151,1232.1814 505.43696,1214 503.75211,1214 503.33845,1214 503,1217.5198 503,1221.8219 v 7.8219 l 10.3188,3.2063 c 5.67533,1.7634 22.66283,7.2191 37.75,12.1236 15.08716,4.9045 27.9937,8.9418 28.6812,8.9718 0.90401,0.039 1.25,-2.2436 1.25,-8.248 z m 87.5,-23.1018 c 39.05,-15.7864 82.8125,-33.4799 97.25,-39.3189 L 792,1172.6603 v -6.8301 c 0,-3.7566 -0.17346,-6.8302 -0.38547,-6.8302 -0.97638,0 -60.04123,22.9074 -100.61453,39.0218 -15.125,6.0071 -43.025,16.9696 -62,24.3611 l -34.5,13.439 -0.29251,8.2168 c -0.26652,7.4869 -0.13328,8.1743 1.5,7.7382 0.98588,-0.2633 33.74251,-13.3948 72.79251,-29.1812 z m -67.0356,-4.7893 c 5.51958,-2.2036 14.0856,-5.4943 19.0356,-7.3126 4.95,-1.8183 30.375,-11.7192 56.5,-22.0019 26.125,-10.2828 53.8,-21.1006 61.5,-24.0397 45.89125,-17.5164 45.08862,-17.1693 41.40978,-17.9044 -1.87538,-0.3747 -17.05488,-3.6636 -33.73223,-7.3088 l -30.32245,-6.6275 -10.67755,3.8244 c -14.05036,5.0324 -40.56496,13.1314 -45.92755,14.0287 -4.61091,0.7716 -5.15595,1.5442 -2.58388,3.663 0.91637,0.7548 3.39137,3.5503 5.5,6.2122 7.72453,9.7513 4.37678,16.5462 -11.16612,22.6638 -6.93954,2.7314 -9.93011,3.3594 -16.29001,3.421 l -7.79002,0.075 -8.66659,-8.8212 -8.66659,-8.8213 -19.0434,6.6537 c -49.80271,17.401 -76.47844,26.8871 -76.25021,27.1153 0.40574,0.4058 62.97185,19.1496 65.70682,19.6847 4.69028,0.9178 11.42016,-0.4946 21.4644,-4.5048 z m -333.32035,0.1894 c 12.85956,-1.2469 36.96363,-5.8641 38.49343,-7.3735 0.83288,-0.8218 1.32437,-39.3914 1.83539,-144.0318 0.38385,-78.60022 1.0894,-143.93918 1.56789,-145.1977 0.47848,-1.25851 2.04346,-3.0571 3.47773,-3.99687 2.35,-1.53978 4.90763,-1.64213 25.876,-1.03547 l 23.26825,0.67319 1.72963,-6.26682 c 0.9513,-3.44676 3.23329,-9.01498 5.0711,-12.37382 l 3.34147,-6.107 -6.50796,-8.64258 c -3.57937,-4.75343 -9.27299,-11.60559 -12.65247,-15.22702 l -6.14451,-6.58443 -4,3.44111 c -11.62414,10 -24.871,11.23698 -34.26124,3.19929 l -3.93761,-3.37046 -4.40058,2.18933 c -5.52751,2.74998 -14.77922,2.92312 -20.00815,0.37444 -5.30814,-2.58729 -9.88331,-7.46539 -12.66025,-13.49851 -1.98946,-4.32224 -2.37846,-6.50151 -2.05275,-11.5 0.22102,-3.39195 1.12824,-7.61295 2.01603,-9.38 1.52501,-3.03537 1.51075,-3.24565 -0.25817,-3.80709 -4.19775,-1.33231 -14.05268,-9.74144 -18.03633,-15.39025 l -4.24842,-6.02427 -4.30392,3.96722 c -4.54558,4.18996 -8.42375,5.06773 -12.57484,2.84614 C 224.94558,812.83014 207.56836,799.77131 203,795.51017 198.9651,791.74661 178.62258,777 177.46576,777 177.20959,777 177,874.83771 177,994.41714 v 217.41716 l 4.75,1.0112 c 11.44603,2.4366 22.94934,4.3525 30.55144,5.0884 12.14504,1.1756 43.99325,1.2109 55.84261,0.062 z M 464.5,1216.9882 c 9.35,-0.5458 19.09394,-1.1028 21.65319,-1.2376 l 4.65319,-0.2453 0.36368,-7.2019 c 0.47331,-9.3728 2.30643,-11.8713 11.59499,-15.8034 l 7.08666,-3 0.36575,-11 c 0.20116,-6.05 0.47248,-36.2692 0.60294,-67.1537 l 0.23719,-56.1538 -25.68239,-29.3462 c -14.12532,-16.1405 -26.17578,-29.2508 -26.7788,-29.13408 -0.60302,0.11672 -3.5714,0.93303 -6.5964,1.81402 -7.00047,2.03876 -16.93533,1.48066 -23.23334,-1.30526 -5.59953,-2.47694 -14.0684,-10.12102 -15.77338,-14.2372 -0.86808,-2.09572 -2.78954,-3.65952 -6.69141,-5.44586 -7.37415,-3.37599 -12.60249,-7.67919 -16.34213,-13.45045 -1.72837,-2.66733 -5.74253,-6.65623 -9.03497,-8.97812 C 377.66614,952.8113 375,950.49659 375,949.96554 375,949.43449 374.56525,949 374.03389,949 c -0.6166,0 -0.96128,47.02163 -0.95277,129.9742 l 0.0134,129.9741 3.73351,1.0054 c 6.44186,1.7346 26.26982,4.8919 37.70005,6.0031 22.39148,2.1769 28.27182,2.2982 49.97197,1.0314 z m 82.66199,-40.8445 c 12.28591,-4.321 29.19242,-10.229 37.57003,-13.1288 l 15.23203,-5.2725 -3.00396,-3.7928 c -1.65218,-2.086 -8.73159,-10.2648 -15.73203,-18.1751 -7.00043,-7.9102 -22.39779,-25.4633 -34.21634,-39.0068 -11.81855,-13.5434 -21.54371,-24.5442 -21.61146,-24.4461 -0.3637,0.5267 -1.36254,111.6784 -1.00356,111.6784 0.23501,0 10.47939,-3.5354 22.76529,-7.8563 z m 96.63156,-4.7887 7.29354,-2.6547 -2.38261,-2.6001 C 644.26588,1161.2563 521.55341,1020.6463 502.65544,998.75 492.331,986.7875 483.64186,977 483.34623,977 c -0.29562,0 -1.73196,0.84124 -3.19186,1.86942 -1.4599,1.02817 -4.5781,2.84305 -6.92932,4.03305 l -4.27495,2.16364 12.27495,14.2012 c 6.75122,7.81069 17.22495,19.87489 23.27495,26.80929 6.05,6.9345 16.4378,18.8666 23.084,26.5158 27.78085,31.9733 69.86144,80.3267 87.1642,100.1576 10.19754,11.6875 19.26341,21.2522 20.14639,21.2548 0.88298,0 4.88751,-1.1898 8.89896,-2.6498 z M 449.4504,985.38066 c 1.2925,-0.49598 0.62089,-1.66939 -3.37182,-5.89109 -7.71674,-8.15931 -8.01804,-13.18052 -1.07944,-17.98898 9.20509,-6.37912 14.03507,-14.65022 11.87415,-20.33387 -1.57459,-4.14147 -3.72377,-5.96566 -7.84972,-6.66274 -5.7269,-0.96755 -11.25749,1.00173 -16.79457,5.98004 -6.10196,5.48618 -9.33581,12.52067 -10.00764,21.76927 -0.77207,10.62856 2.80132,17.62661 11.27864,22.08786 2.99559,1.57645 12.87354,2.22021 15.9504,1.03951 z m 61.78381,-30.64509 c 0.33312,-28.31255 0.26515,-29.67836 -1.3935,-28 -1.00312,1.01504 -2.20858,4.7027 -2.83826,8.68255 -1.33756,8.45407 -5.60689,19.72401 -9.85835,26.02348 -1.89921,2.81409 -2.86268,5.20321 -2.40593,5.96602 1.50777,2.51806 15.76621,18.37289 15.95383,17.74003 0.1056,-0.35621 0.3496,-14.04164 0.54221,-30.41208 z m -38.61501,12.18242 c 18.21714,-12.53373 26.06858,-39.79134 18.0756,-62.75259 -6.41985,-18.44216 -21.45596,-35.33511 -37.38018,-41.99632 -9.99775,-4.18213 -20.75531,-2.17472 -29.24358,5.45696 l -4.94056,4.44199 1.54915,3.71598 c 1.46413,3.51204 18.92539,25.2591 20.21608,25.17804 0.33236,-0.0209 1.84686,-1.834 3.36555,-4.02917 5.98435,-8.64997 17.90593,-12.76569 22.80022,-7.8714 2.68858,2.68858 2.13677,5.0832 -1.57371,6.82929 -5.53076,2.60269 -10.55758,7.31347 -13.0476,12.22731 L 449.96631,913 l 2.46036,4.85528 c 1.61273,3.18258 3.47405,5.27517 5.40276,6.07407 7.42742,3.07654 13.17057,11.95151 13.17057,20.35267 0,7.88889 -2.49548,14.00478 -8.31055,20.3674 -4.70737,5.15061 -4.96172,5.67832 -3.31668,6.8812 2.12381,1.55297 6.49977,0.0292 13.24643,-4.61263 z m -63.31411,-10.58511 c 1.23965,-12.01106 12.37229,-27.33303 23.60318,-32.4853 2.80045,-1.28473 5.09173,-2.62486 5.09173,-2.97806 0,-0.35321 -2.21907,-3.0058 -4.93127,-5.89465 -4.7858,-5.09752 -5.05401,-5.23284 -9.09177,-4.58718 C 409.22158,912.74717 399,927.22082 399,945.7548 c 0,4.79253 0.51703,6.72799 2.62844,9.83933 2.50582,3.69254 5.1627,6.30531 6.48166,6.37407 0.33555,0.0175 0.8733,-2.5184 1.19499,-5.63532 z M 391.6197,917.9574 c 3.2391,-5.95128 11.2431,-14.24372 15.41707,-15.97263 1.62977,-0.67508 2.95362,-1.51032 2.94188,-1.85609 -0.0117,-0.34577 -1.84485,-1.91916 -4.07356,-3.49641 -3.56252,-2.52118 -4.71298,-2.81293 -9.52012,-2.41429 -6.21767,0.51562 -9.60112,2.59529 -13.4982,8.29682 -8.29655,12.13805 -8.55282,27.53206 -0.60308,36.22711 l 2.04974,2.24192 2.27487,-8.99925 c 1.25117,-4.94959 3.5063,-11.26182 5.0114,-14.02718 z m 119.1762,-15.75231 3.05179,-4.29491 -1.9945,-7.20509 c -7.0157,-25.34402 -27.63485,-48.051 -47.73353,-52.56687 -4.26333,-0.95791 -5.37187,-0.2791 -9.41524,5.76535 l -1.60785,2.40357 8.70172,4.27369 c 4.78594,2.35053 11.67027,6.73446 15.2985,9.74205 11.89169,9.85753 24.52165,29.27436 27.96479,42.99205 0.6647,2.64822 1.5402,4.44822 1.94554,4 0.40534,-0.44821 2.11029,-2.74764 3.78878,-5.10984 z M 388,881.5 c 2.3383,-0.825 6.44488,-1.5 9.12573,-1.5 3.24505,0 4.86656,-0.41781 4.85121,-1.25 -0.0172,-0.93071 -17.56097,-22.66737 -21.36627,-26.47266 -0.29892,-0.29893 -2.09291,0.8169 -3.98664,2.47962 -1.89373,1.66271 -4.83384,3.84462 -6.53359,4.84868 -1.69974,1.00407 -3.08853,2.06605 -3.0862,2.35997 0.004,0.55508 16.0689,21.03439 16.49991,21.03439 0.13442,0 2.15755,-0.675 4.49585,-1.5 z m 138.36161,-3.11749 c 5.71273,-7.83946 28.42649,-49.69098 36.29865,-66.88251 10.19842,-22.27173 14.52972,-34.42447 20.6715,-58 L 587.5,737.5 587.38761,702 c -0.0618,-19.525 -0.63631,-44.5 -1.27664,-55.5 -7.02578,-120.69317 -7.68552,-128.91301 -11.63449,-144.95667 -4.03822,-16.40627 -11.33708,-29.0355 -20.58726,-35.62221 l -2.97656,-2.1195 -5.17394,5.17394 c -3.14807,3.14808 -7.83066,6.41722 -11.95904,8.34919 l -6.78511,3.17525 0.75272,29.5 c 0.41399,16.225 0.75271,72.1376 0.75271,124.25022 0,52.11262 0.225,94.73597 0.5,94.71857 1.20735,-0.0764 3.74959,-4.76682 4.31914,-7.96879 1.55483,-8.74116 6.93224,-70.2324 8.70128,-99.5 0.59839,-9.9 1.96165,-29.925 3.02947,-44.5 1.06782,-14.575 1.94343,-30.40821 1.9458,-35.1849 0.002,-4.7767 0.43839,-9.82663 0.96894,-11.22207 1.83143,-4.81702 10.28575,-4.6883 12.1442,0.1849 0.71976,1.88734 0.70649,8.08851 -0.0433,20.22207 -0.59475,9.625 -1.99157,32.8 -3.10404,51.5 -1.80667,30.36909 -8.11418,111.1897 -9.54421,122.29374 -0.46077,3.57786 -2.16028,6.24548 -10.19341,16 -50.83076,61.72306 -68.21543,83.41093 -67.62576,84.36504 0.28595,0.46267 1.35835,0.84122 2.38311,0.84122 1.02476,0 5.61071,1.89974 10.19098,4.22165 6.72408,3.40868 10.2535,6.15283 18.32778,14.25 10.45373,10.48337 16.27913,19.04572 20.61068,30.29424 1.31413,3.41262 2.61432,6.19722 2.88932,6.18801 0.275,-0.009 1.33772,-1.16634 2.36161,-2.57139 z m -101.00358,-28.7811 c 3.22191,-1.51922 7.35203,-3.00466 9.17804,-3.30098 2.53947,-0.4121 3.62178,-1.27483 4.60358,-3.66959 2.15315,-5.2519 25.85792,-35.78956 61.81319,-79.63084 l 13.53205,-16.5 0.3595,-12.21816 0.35951,-12.21817 -10.29843,3.46817 c -5.66414,1.90749 -11.44752,3.46699 -12.85195,3.46556 -3.65305,-0.004 -30.44131,-7.64443 -35.05696,-9.99915 -2.13438,-1.08889 -5.02294,-3.47734 -6.41901,-5.30769 C 445.16618,706.59588 445,705.05073 445,661.82882 v -39.91973 l 2.60794,-2.60794 2.60794,-2.60794 32.78124,0.70158 32.78124,0.70159 -0.33322,-6.29819 C 515.26186,608.33418 514.85294,582.325 514.53642,554 514.2199,525.675 513.67707,498.1125 513.33014,492.75 L 512.69936,483 h -6.84968 c -5.5007,0 -6.84968,0.30326 -6.84968,1.53984 0,0.84691 -0.97484,3.43441 -2.16632,5.75 -2.119,4.1182 -2.161,5.00195 -1.92305,40.462 0.17061,25.42459 -0.10326,37.30182 -0.91698,39.76739 -1.6594,5.02805 -5.24127,6.59049 -13.68386,5.96901 C 476.56441,576.21253 447.625,574.3936 416,572.44617 c -31.625,-1.94743 -59.01278,-3.77432 -60.86173,-4.05975 -1.84895,-0.28543 -4.43645,-1.59369 -5.75,-2.90724 L 347,563.09091 v -36.43045 -36.43044 l -2.30028,-1.5072 c -3.89318,-2.55091 -16.11,-17.66819 -23.33364,-28.87339 -9.75234,-15.12769 -9.52643,-14.81608 -8.85511,-12.21427 1.04324,4.0433 0.67546,151.90426 -0.44118,177.36484 -1.28935,29.39886 -4.67897,80.82419 -6.0919,92.42303 -0.53084,4.35766 -0.80242,8.08578 -0.6035,8.28469 0.19891,0.19891 2.33355,-0.0929 4.74363,-0.64858 21.82194,-5.03095 52.75641,9.83662 68.53897,32.94086 7.47074,10.93648 11.52544,22.62291 13.27549,38.26246 1.18169,10.56032 -0.18793,29.01846 -2.73587,36.87107 l -1.74126,5.36647 10.45616,12.22687 10.45616,12.22687 5.56616,-5.29505 c 3.0614,-2.91229 8.20228,-6.53806 11.4242,-8.05728 z m -91.97613,6.40068 c 5.7763,-5.32441 10.37682,-14.23739 12.16042,-23.55944 2.27155,-11.87231 1.99919,-16.02936 -2.23378,-34.09478 -0.64221,-2.74078 2.8255,-6.34787 6.10257,-6.34787 3.78211,0 7.00493,4.78883 9.04079,13.43383 2.54893,10.82366 1.80458,28.13455 -1.6481,38.32897 -2.722,8.03699 -2.96324,7.71175 3.83511,5.17066 3.78632,-1.41525 9.42213,-7.12041 11.93763,-12.08451 4.37939,-8.6423 5.66691,-16.78509 5.19403,-32.84895 -0.37898,-12.87419 -0.76117,-15.45801 -3.40863,-23.04417 -5.15713,-14.7775 -14.36269,-25.83299 -28.51727,-34.24803 -9.79584,-5.82372 -18.23808,-8.03426 -28.66555,-7.50585 -10.31825,0.52287 -14.52244,2.39005 -21.31684,9.46728 -7.88144,8.20952 -36.91525,42.53252 -38.38902,45.38248 -1.29572,2.50565 -1.1479,3.113 2.08649,8.5725 1.91456,3.23168 4.93435,7.16165 6.71063,8.73326 4.6664,4.1287 12.5942,7.62148 17.32463,7.63276 4.94745,0.0118 7.73832,2.60078 7.73832,7.17851 0,3.62337 -3.23881,6.83126 -6.89711,6.83126 -1.85475,0 -2.55896,0.78046 -3.38364,3.75 -0.57278,2.0625 -1.04394,5.7075 -1.047,8.1 -0.005,3.61762 0.56686,4.92244 3.39442,7.75 4.82404,4.82404 10.05856,4.78739 15.47757,-0.10836 6.17102,-5.57514 8.49241,-12.07911 8.5631,-23.99164 0.0326,-5.5 -0.34183,-13.25218 -0.83214,-17.22708 C 305.59086,803.02275 306.46536,801 311.04986,801 c 9.64139,0 13.07064,27.59917 5.93228,47.74396 l -2.03967,5.75604 3.04454,2.75 c 4.72745,4.2701 9.85991,3.85406 15.39489,-1.24791 z M 242.77925,787.75 c 5.48439,-6.7375 17.66911,-21.025 27.07717,-31.75 9.40805,-10.725 17.09101,-19.725 17.07323,-20 -0.0521,-0.80627 -13.83724,-11.5 -14.82448,-11.5 -0.49475,0 -3.08332,2.7539 -5.75236,6.11977 -2.66905,3.36588 -10.02781,12.32282 -16.35281,19.90432 -6.325,7.5815 -16.09461,19.33538 -21.71024,26.11972 l -10.21024,12.33517 7.21024,5.44117 c 3.96563,2.99265 7.27946,5.47238 7.36406,5.51051 0.0846,0.0381 4.64105,-5.44316 10.12543,-12.18066 z m -25.62564,-20.79034 c 5.14051,-6.34718 16.04544,-19.46564 24.23316,-29.15213 8.18772,-9.68648 15.72346,-18.93326 16.74609,-20.54838 l 1.85931,-2.93659 -10.24608,-7.84778 C 244.11074,702.1585 223.975,686.20405 205,671.02043 186.025,655.83681 166.84455,640.64394 162.37678,637.25849 152.35527,629.66471 150.98461,627.01539 155,623 c 4.5793,-4.5793 9.51876,-1.94594 35.64761,19.00469 l 12.1476,9.74019 1.20055,-2.62244 c 3.3522,-7.32243 33.28401,-86.45752 44.05832,-116.48338 2.93294,-8.17352 6.17827,-15.93602 7.21185,-17.25 3.77587,-4.80025 11.73407,-2.06448 11.73407,4.0338 0,3.21641 -23.84014,68.22766 -41.62173,113.50106 C 219.67022,647.45707 215,659.68456 215,660.09612 c 0,1.07842 75.94097,60.29624 76.5469,59.69031 0.17133,-0.17133 1.23592,-11.55587 2.36575,-25.29897 1.82895,-22.24709 2.49036,-33.36293 4.61062,-77.48746 1.60329,-33.36591 0.20503,-194.62118 -1.70397,-196.51079 -0.3165,-0.31328 -17.4238,0.40115 -60.8193,2.53994 -43.43146,2.14056 -52.14085,5.43676 -64.94401,24.57908 -9.44791,14.12579 -49.77648,96.96012 -68.35088,140.39177 -27.456611,64.20049 -29.210597,88.08088 -7.942329,108.13421 9.357039,8.82253 31.802559,25.97641 64.237219,49.093 15.125,10.77978 32,22.9561 37.5,27.05848 5.5,4.10239 10.29412,7.17885 10.65361,6.8366 0.35949,-0.34226 4.85949,-5.81544 10,-12.16263 z M 504.12837,711.25 l 10.85982,-3.75 0.11143,-30 c 0.12415,-33.42477 0.0382,-44.71667 -0.34271,-45.03257 -0.1413,-0.11718 -12.74441,-0.53026 -28.00691,-0.91795 L 459,630.84459 v 34.10982 c 0,36.28839 0.38133,39.57375 4.87221,41.9772 2.66789,1.42781 25.07394,7.96045 27.51206,8.02134 1.03635,0.0259 6.77119,-1.64045 12.7441,-3.70295 z M 481,537.05283 C 481,523.27377 480.69793,512 480.32874,512 c -0.36919,0 -1.38169,0.63584 -2.25,1.41298 -2.61498,2.34043 -15.20865,8.29508 -21.07874,9.96665 -8.53538,2.43054 -23.66866,3.91595 -32.5,3.19005 -18.8683,-1.55089 -42.01829,-10.05913 -59.25,-21.77594 L 361,501.90392 v 26.44017 26.44017 l 9.75,0.62262 c 5.3625,0.34244 24.825,1.53801 43.25,2.65683 18.425,1.11883 38.225,2.36441 44,2.76798 5.775,0.40356 13.3125,0.8553 16.75,1.00386 l 6.25,0.27011 z m -27.5,-29.11921 c 13.8709,-4.28288 22.99608,-10.95243 28.31398,-20.69453 L 484.12797,483 h -11.60944 c -10.99274,0 -11.73983,-0.13039 -14.06398,-2.45455 -2.94372,-2.94371 -3.14227,-6.47378 -0.54471,-9.68467 1.90812,-2.35865 1.93629,-2.36129 31.25,-2.93078 17.16267,-0.33342 30.67714,-1.02736 32.56144,-1.67196 6.20846,-2.12383 13.52657,-6.72967 16.83629,-10.59633 C 542.02638,451.60918 546,441.59931 546,436.91363 v -2.69803 l -3.71144,1.8922 c -6.69301,3.41229 -15.60885,1.83172 -21.50056,-3.81154 l -2.71201,-2.59764 -4.09027,3.69532 c -2.24965,2.03242 -5.22104,4.12523 -6.6031,4.65069 -6.08085,2.31193 -13.38013,-0.0588 -16.94842,-5.50471 l -1.67447,-2.55557 -3.93214,3.55245 c -4.82139,4.35583 -7.59133,5.46429 -13.64269,5.45946 -5.35401,-0.004 -9.92019,-2.36663 -13.23155,-6.84549 l -2.19493,-2.9688 -5.95307,4.38241 c -5.92751,4.36358 -11.04712,6.43927 -15.80535,6.40808 -4.29167,-0.0281 -10.8979,-3.64115 -12.20143,-6.6731 -0.66194,-1.53965 -1.27123,-2.92067 -1.35397,-3.06895 -0.0827,-0.14827 -1.88811,1.32206 -4.01193,3.2674 -11.69348,10.7108 -26.13708,11.41477 -33.23258,1.61971 -5.94216,-8.20291 -6.14202,-22.35611 -0.55224,-39.10792 5.86973,-17.59077 20.00338,-33.31835 38.11506,-42.4135 7.25594,-3.64372 21.45455,-8.27875 29.11952,-9.50585 3.51033,-0.56197 6.54466,-1.184 6.74294,-1.38228 0.19828,-0.19828 0.81744,-2.7699 1.37591,-5.71472 C 459.08754,331.26541 461.26565,328 464,328 c 3.72257,0 6.08494,5.38753 7.4543,17 0.82653,7.00919 3.82369,13.27672 7.21434,15.08637 3.50036,1.8682 12.64552,1.59303 15.80246,-0.47548 5.49826,-3.60259 6.04272,-6.25351 5.87633,-28.61089 -0.0839,-11.275 -0.73141,-30.31427 -1.4389,-42.30948 l -1.28634,-21.80948 -13.5611,0.30948 L 470.5,267.5 470.23229,273 c -0.66203,13.60144 -10.94528,28.83236 -23.56994,34.91037 -14.36873,6.91767 -34.01494,6.66542 -46.66235,-0.59913 -10.98783,-6.31129 -19.79225,-19.854 -20.76204,-31.93557 -0.42968,-5.3529 -1.01374,-7.15611 -2.85151,-8.80369 -3.61076,-3.2371 -3.97468,-6.77645 -1.04684,-10.18125 l 2.48578,-2.89073 48.33731,-0.2083 c 26.58551,-0.11456 65.9998,-0.50478 87.5873,-0.86715 L 553,251.76569 v -5.72922 c 0,-3.15107 -0.29238,-9.84835 -0.64974,-14.88285 L 551.70051,222 l -9.60025,0.0239 c -26.1743,0.0651 -62.77807,3.1518 -85.60026,7.21851 -9.01464,1.60633 -16.10487,2.14195 -28.5,2.15299 -17.02778,0.0152 -22.0112,-0.76236 -34.66922,-5.4092 -4.69637,-1.72406 -30.04838,-15.27694 -34.80329,-18.6054 -3.77307,-2.64118 -4.22251,-1.83092 -3.25553,5.86923 1.25682,10.00828 0.26733,35.60908 -1.74466,45.13875 C 348.61496,281.65584 339.09613,297 329.57462,297 c -4.48148,0 -7.20268,-2.32023 -10.58917,-9.02883 -3.88626,-7.69864 -7.75319,-11.99026 -13.6666,-15.16755 -6.92923,-3.72309 -10.40795,-4.21034 -16.79775,-2.35278 -13.35544,3.88253 -18.53989,14.06677 -18.50374,36.34838 0.0495,30.52282 12.6917,49.55992 32.98264,49.66661 5.52643,0.0291 7.35897,-0.45261 12.23485,-3.21583 6.49519,-3.68089 8.33504,-3.94922 10.93641,-1.59501 3.26418,2.95404 2.31747,6.74484 -2.81205,11.26002 -2.55243,2.24675 -5.02743,4.08499 -5.5,4.08499 C 317.38664,367 317,379.10524 317,393.90052 v 26.90053 l 6.75409,13.34947 c 9.61962,19.01321 15.0913,26.77236 28.2007,39.99015 11.93888,12.03759 21.72172,19.22567 34.54521,25.38256 9.33538,4.48216 23.4985,9.14619 31.5,10.37322 10.00394,1.53409 27.26562,0.57968 35.5,-1.96283 z M 300.78669,331.04685 c -2.1569,-1.69662 -2.56493,-3.01522 -3.10659,-10.03929 -0.73884,-9.58116 -2.7053,-14.24198 -7.17414,-17.00388 -5.23821,-3.23739 -5.95298,-4.51026 -4.50107,-8.0155 2.31142,-5.58025 8.81902,-4.85239 16.19501,1.81138 4.74971,4.29108 7.8281,12.35714 8.53336,22.35925 0.51158,7.25534 0.40352,7.79532 -2.05116,10.25 -3.1029,3.1029 -4.6073,3.22447 -7.89541,0.63804 z M 408.5567,328.77749 C 407.70052,327.55512 407,325.78726 407,324.84892 c 0,-3.50418 2.60509,-4.53679 13.17318,-5.22166 5.67975,-0.36807 12.83917,-0.93441 15.90982,-1.25852 5.51321,-0.58192 5.59908,-0.55048 6.86888,2.51509 1.09593,2.64581 1.04814,3.4672 -0.32355,5.56065 -2.25382,3.43977 -7.30474,4.5435 -20.82163,4.54994 -10.95312,0.005 -11.79183,-0.1351 -13.25,-2.21693 z m 157.83732,96.90158 c 1.7115,-2.29253 2.17039,-4.5724 2.44983,-12.17127 0.5487,-14.92113 -3.38708,-25.57995 -13.46475,-36.46504 -8.72675,-9.42594 -23.95458,-17.25782 -37.90982,-19.49756 -3.93468,-0.63149 -4.06231,-0.55956 -5.35619,3.01861 -1.93215,5.34324 -7.55712,11.05573 -12.92667,13.12776 -7.05035,2.72064 -21.33917,2.51265 -26.7811,-0.38983 -4.67825,-2.49516 -9.78772,-7.93876 -12.20043,-12.99828 -1.61453,-3.38569 -1.75342,-3.44833 -6.17827,-2.78642 -2.48964,0.37242 -8.12662,1.81132 -12.52662,3.19754 -20.20147,6.36449 -34.60949,17.65441 -42.51416,33.31347 C 391.5367,408.78471 390.91419,428 397.88526,428 c 3.14486,0 10.43312,-5.66194 17.93261,-13.9311 10.09673,-11.13296 11.62182,-10.8863 15.17575,2.45444 2.76013,10.36096 3.76251,11.40853 8.25792,8.63021 1.87859,-1.16102 5.403,-4.64961 7.83203,-7.75242 8.64807,-11.04687 9.11954,-11.51434 11.29921,-11.20328 1.51872,0.21674 3.11584,2.35297 5.64985,7.557 4.00206,8.21891 7.06825,11.80415 9.34727,10.92961 0.85056,-0.32639 4.08572,-4.40907 7.18925,-9.07262 3.10353,-4.66356 6.34006,-8.74676 7.19228,-9.07378 2.2064,-0.84668 5.95717,3.01128 9.2572,9.52177 4.26685,8.41788 5.33463,8.95775 9.58585,4.84662 1.93738,-1.87355 4.83846,-6.1593 6.44684,-9.5239 5.33561,-11.16168 7.24628,-10.99553 12.47859,1.08514 6.26128,14.4564 10.46111,15.74747 14.56982,4.47893 3.59277,-9.8535 7.87534,-9.90094 12.80174,-0.1418 3.68637,7.30266 7.87192,12.38762 9.87214,11.99355 0.83294,-0.1641 2.46212,-1.56779 3.62041,-3.1193 z M 551,330.89301 c 0,-19.13345 -0.26318,-24.00599 -1.27567,-23.61747 -9.45923,3.62985 -23.08033,3.01736 -31.97433,-1.43776 L 514,303.95935 v 5.54508 c 0,5.11693 0.21233,5.62966 2.75,6.64058 1.5125,0.60252 5.99418,1.18006 9.95928,1.28341 C 534.9501,317.64321 538,319.454 538,324.13193 c 0,4.90119 -3.50582,6.26782 -14.03896,5.47268 L 515,328.92814 v 6.8348 6.8348 l 9.75,2.21658 c 5.67231,1.28955 12.88669,3.81588 17.25,6.0406 4.125,2.10321 7.8375,3.89626 8.25,3.98455 0.4125,0.0883 0.75,-10.68761 0.75,-23.94646 z M 434.14466,297.9954 c 13.36411,-4.21532 23.82159,-16.38094 23.84976,-27.7454 0.005,-2.18907 -0.27528,-2.25 -10.36661,-2.25 h -10.37219 l -0.60644,3.79243 c -0.38269,2.39321 -1.7454,4.88363 -3.69347,6.75 C 430.39943,280.9915 429.0316,281.5 425,281.5 c -4.0316,0 -5.39943,-0.5085 -7.95571,-2.95757 -1.94807,-1.86637 -3.31078,-4.35679 -3.69347,-6.75 L 412.74438,268 H 401.5013 390.25821 l 0.82712,4.42735 c 2.44681,13.09716 10.48562,22.14813 23.20071,26.1219 6.1123,1.91024 12.62216,1.72868 19.85862,-0.55385 z m 111.61741,-4.37483 c 8.97832,-4.54966 14.23621,-12.6701 14.24003,-21.99269 l 0.002,-5.12788 -6.5021,0.33533 -6.5021,0.33532 v 3.77982 c 0,7.71641 -7.95019,12.76849 -15.27618,9.7075 -4.15163,-1.73467 -7.71446,-6.7687 -7.72008,-10.90797 C 524.00002,267.01226 523.96879,267 517,267 h -7 v 4.41709 c 0,6.15985 3.13186,12.81378 8.47568,18.00738 8.08017,7.85303 17.2784,9.26753 27.28639,4.1961 z m -210.9021,-22.41369 c 4.63291,-12.01352 6.49596,-23.55182 6.57282,-40.70688 0.037,-8.25 -0.30267,-17.5875 -0.75475,-20.75 L 339.85609,204 H 319.2972 298.73832 l 0.61983,3.75 c 0.34091,2.0625 0.62479,13.47636 0.63084,25.36414 l 0.011,21.61414 4.75,1.75939 c 9.99134,3.70075 21.03764,12.89093 24.26798,20.19021 0.77352,1.74783 1.73141,2.977 2.12866,2.73149 0.39724,-0.24551 2.06824,-3.93663 3.71333,-8.20249 z M 456.5,214.49024 c 25.73019,-4.66726 49.585,-6.95733 98.5,-9.45601 19.73349,-1.00802 39.84327,-0.0405 52.43243,2.52277 3.81283,0.77631 7.07292,1.27098 7.24463,1.09927 0.7401,-0.7401 -28.21034,-14.93741 -38.69207,-18.97461 -28.36906,-10.92678 -49.09352,-14.65869 -81.48633,-14.67346 -37.13333,-0.0169 -82.80878,7.97555 -115.28689,20.17335 l -8.28823,3.11281 7.28823,3.9692 c 7.87921,4.29104 22.12593,10.74079 27.83547,12.60161 11.33079,3.69288 28.74054,3.5635 50.45276,-0.37493 z M 363,185.33828 c 12.86442,-6.12822 44.03743,-15.38164 65,-19.29466 42.67906,-7.96676 85.59202,-8.89192 116.5,-2.51162 l 3,0.61928 -0.66213,-16.13185 C 545.32366,111.12745 537.30903,97.563728 514.98349,94.109992 511.41757,93.558348 498.6,92.301835 486.5,91.317741 460.29466,89.186458 378.45002,88.844599 353.04663,90.760316 339.00854,91.818955 337.01098,92.212339 331.23535,95.055673 322.53238,99.340128 311.4899,110.40181 307.25504,119.07767 301.37128,131.13161 298,152.63245 298,178.10315 v 9.81272 l 7.75,0.31584 c 4.2625,0.17371 17.425,0.29044 29.25,0.25941 l 21.5,-0.0564 6.5,-3.09641 z M 741.22896,1347.3307 C 739.57541,1346.6654 737,1341.6563 737,1339.1054 c 0,-1.0966 1.06668,-3.234 2.37041,-4.7496 4.94913,-5.7537 14.62959,-1.952 14.62959,5.7454 0,5.6858 -6.89995,9.5917 -12.77104,7.2295 z M 892.357,1271.0084 c -5.44094,-2.1957 -6.9965,-9.4598 -2.90245,-13.5539 5.17205,-5.172 13.54545,-1.4349 13.54545,6.0455 0,2.4792 -0.75988,4.3508 -2.45455,6.0455 -2.55966,2.5596 -4.57749,2.9201 -8.18845,1.4629 z m 42.74876,-25.9096 c -6.24459,-5.8333 -2.88283,-16.0988 5.27206,-16.0988 9.97811,0 13.41603,12.9525 4.6422,17.4896 -4.22769,2.1863 -6.41321,1.8797 -9.91426,-1.3908 z m -91.99498,-12.4809 c -3.75874,-4.001 -2.70348,-11.16 2.01744,-13.6865 5.10236,-2.7307 12.87178,2.1328 12.87178,8.0574 0,7.0182 -10.02397,10.8079 -14.88922,5.6291 z m 56.42657,-36.1239 c -6.6312,-1.4469 -9.53735,-4.0308 -9.53735,-8.4798 0,-5.8961 -1.29315,-9.136 -4.67641,-11.7166 -3.30881,-2.5237 -3.56133,-2.56 -8.90053,-1.2791 -5.09462,1.2221 -5.6929,1.172 -8.20908,-0.6879 -2.88985,-2.1361 -8.03507,-14.4917 -8.15126,-19.5743 -0.0598,-2.6141 2.51598,-5.1526 9.39197,-9.2563 0.96131,-0.5737 1.91925,-2.8279 2.24721,-5.2881 0.49571,-3.7184 0.17649,-4.7812 -2.40281,-8 -2.91164,-3.6335 -5.29909,-7.5261 -5.29909,-8.6398 0,-1.6738 14.4767,-16.6536 16.61224,-17.1896 1.88233,-0.4725 3.64537,0.1816 7.01784,2.6035 l 4.50395,3.2345 4.31095,-1.6463 c 3.78397,-1.4451 4.38399,-2.1004 4.90845,-5.3603 0.72011,-4.476 3.06816,-8.0435 6.0369,-9.1722 2.06057,-0.7834 16.0157,0.9282 19.72422,2.4192 2.37599,0.9553 3.88545,4.9952 3.88545,10.3991 0,3.9667 0.4922,5.2374 2.93559,7.5783 2.92628,2.8035 2.95613,2.8086 9.40942,1.5909 10.41046,-1.9643 11.23376,-1.2658 15.66948,13.2937 2.81924,9.2536 2.51395,10.1351 -4.7367,13.6771 -4.99864,2.4419 -5.13408,2.6241 -5.82345,7.834 -0.69692,5.267 -0.65393,5.3869 3.41994,9.5379 6.17839,6.2953 5.83405,7.8782 -4.33604,19.9324 -3.38144,4.0079 -4.49469,4.6957 -7.59996,4.6957 -2.45742,0 -4.98554,-0.976 -7.78958,-3.0072 l -4.15137,-3.0073 -3.66649,1.7573 c -3.04464,1.4592 -3.97931,2.69 -5.51087,7.2572 -1.01441,3.025 -2.5999,6.0625 -3.52331,6.75 -2.0779,1.5471 -7.93176,1.452 -15.75931,-0.256 z m 10.89873,-15.5514 c 1.06048,-3.7796 2.33219,-6.2453 3.38177,-6.557 0.92518,-0.2748 3.93215,-1.4228 6.68215,-2.551 8.13319,-3.3368 8.72524,-3.3091 13.91487,0.6523 2.62991,2.0074 4.84994,3.5066 4.93339,3.3315 0.0835,-0.1751 1.25832,-1.5726 2.61082,-3.1054 l 2.45907,-2.787 -4.32257,-3.9512 c -4.0782,-3.7279 -4.27944,-4.1639 -3.5595,-7.713 0.4197,-2.069 0.85535,-6.3839 0.96812,-9.5886 0.2349,-6.6754 1.78777,-8.8463 7.81874,-10.9306 2.10261,-0.7267 3.80981,-1.6448 3.79377,-2.0401 -0.11115,-2.74 -1.47625,-7.7025 -2.1188,-7.7025 -0.42873,0 -2.74114,0.8901 -5.13871,1.978 -2.39756,1.088 -4.86448,1.988 -5.48205,2 -1.55234,0.03 -14.72066,-10.8464 -15.55686,-12.8496 -0.37385,-0.8956 -0.71135,-3.9408 -0.75,-6.7671 -0.0696,-5.0913 -0.10351,-5.145 -3.67247,-5.8145 -1.9812,-0.3717 -3.83398,-0.444 -4.11727,-0.1607 -0.2833,0.2833 -0.74503,2.5551 -1.02607,5.0485 -0.60286,5.3486 -1.58314,6.3051 -9.65377,9.42 -9.87062,3.8096 -11.76051,3.822 -15.9936,0.1053 -2.02086,-1.7743 -3.77167,-3.0537 -3.8907,-2.843 -0.11902,0.2107 -1.31367,1.6273 -2.65476,3.148 l -2.43836,2.765 3.81353,3.9054 c 3.76551,3.8562 3.80515,3.9788 3.14844,9.7351 -1.75664,15.3971 -1.29952,14.3133 -7.12299,16.8887 l -5.27683,2.3337 1.01728,4.0077 1.01727,4.0078 5.14001,-1.9537 c 2.827,-1.0745 5.46248,-1.9538 5.85662,-1.9541 0.39414,-3e-4 3.09414,2.0385 6,4.5306 2.90586,2.4921 6.52088,5.5902 8.03338,6.8848 2.38492,2.0413 2.75,3.0881 2.75,7.8856 0,5.8271 0.5052,6.4805 5.11822,6.6196 2.36729,0.071 2.78113,-0.5017 4.31786,-5.9785 z M 908.5,1164.4837 c -0.55,-0.1698 -2.24885,-0.5845 -3.77521,-0.9216 -4.10424,-0.9063 -10.5316,-7.1852 -11.84602,-11.5724 -3.37384,-11.2609 5.14951,-22.9897 16.70663,-22.9897 15.26119,0 23.65923,18.2368 13.79594,29.9587 -2.72911,3.2433 -11.60165,6.5374 -14.88134,5.525 z m 4.53517,-12.0019 c 5.98247,-3.0936 4.04881,-11.6029 -2.79242,-12.2883 -6.6319,-0.6645 -9.42891,7.8077 -3.97303,12.0343 2.74808,2.1289 3.11337,2.1426 6.76545,0.254 z m -90.11209,31.5951 c -5.01595,-5.0159 -3.38378,-12.7183 3.28967,-15.5243 3.82316,-1.6075 7.1406,-0.9265 10.15089,2.0838 6.22037,6.2203 2.14356,16.3636 -6.57693,16.3636 -3.02202,0 -4.62192,-0.6814 -6.86363,-2.9231 z m -22.44732,-70.4728 C 797.25943,1112.2027 795,1108.4497 795,1104.5087 c 0,-3.8625 3.92027,-7.5542 8.70329,-8.1957 3.72326,-0.4994 4.54628,-0.2173 7.24844,2.4849 4.81458,4.8146 3.63608,11.7462 -2.49142,14.6539 -3.87916,1.8408 -4.09945,1.845 -7.98455,0.1523 z M 864.5,1075.3422 c -14.11529,-0.8392 -35.29547,-2.7298 -55,-4.9093 -32.69499,-3.6165 -34.69823,-3.9772 -36.87622,-6.6395 -2.16392,-2.6451 -2.06799,-5.5277 1.37417,-41.2934 1.1116,-11.55 2.71492,-28.9395 3.56294,-38.64333 0.84802,-9.70384 2.08124,-19.81201 2.74048,-22.4626 1.75615,-7.06088 -1.13742,-6.92031 50.19863,-2.4386 25.95976,2.26632 49.64381,4.80299 53.26582,5.70501 4.45348,1.10909 6.23418,4.89878 6.23418,13.26761 0,6.99565 -3.88681,44.49411 -7.4186,71.57191 -0.78911,6.05 -1.72975,13.6245 -2.0903,16.8322 -0.7886,7.0159 -3.01897,9.7494 -7.7411,9.4876 -1.7875,-0.099 -5.5,-0.3141 -8.25,-0.4776 z M 872.4348,1033 c 3.41131,-26.9195 4.38638,-35.90567 5.15465,-47.50464 l 0.66266,-10.00464 -22.37605,-1.80037 c -12.30684,-0.9902 -31.51138,-2.72779 -42.67678,-3.86131 -11.16539,-1.13352 -20.50266,-1.85899 -20.74949,-1.61216 -0.71912,0.71911 -6.41248,55.14182 -8.70814,83.24092 -0.28151,3.4458 0.7402,3.7986 15.75835,5.4429 4.95,0.5419 16.2,1.9023 25,3.0231 8.8,1.1208 22.3,2.3839 30,2.807 l 14,0.7692 0.73186,-5.5 c 0.40252,-3.025 1.84384,-14.275 3.20294,-25 z m -34.77981,7.1713 c -2.65845,-2.9376 -1.94711,-6.0039 2.6706,-11.5118 2.37907,-2.8377 5.39018,-6.6999 6.69134,-8.5826 l 2.36575,-3.4231 -4.89633,-9.2293 c -4.36197,-8.22204 -4.76853,-9.50976 -3.72535,-11.7993 1.53986,-3.37963 5.68233,-4.43895 8.25476,-2.11093 2.87549,2.60228 11.98424,20.89023 11.98424,24.06123 0,1.7731 -1.99803,5.436 -5.63787,10.3355 -10.47938,14.1061 -13.8959,16.4716 -17.70714,12.2603 z M 810.66238,1036.75 C 805.84616,1028.9186 799,1014.7292 799,1012.5784 c 0,-1.6353 2.02713,-4.98 5.64565,-9.3149 12.24619,-14.67092 15.0115,-16.5098 18.69936,-12.43476 3.03273,3.35113 1.98277,6.12385 -5.42604,14.32896 l -7.08102,7.8421 4.58102,8.404 c 6.33532,11.6223 6.133,17.5962 -0.59592,17.5962 -1.80314,0 -3.26218,-0.789 -4.16067,-2.25 z m -102.87388,22.3523 c -2.65947,-2.3762 -3.24305,-3.6358 -3.24305,-7 0,-9.091 10.49837,-13.0945 16.55689,-6.3138 4.66755,5.2239 3.43248,11.914 -2.7866,15.0945 -3.63471,1.8588 -7.11234,1.2705 -10.52724,-1.7807 z m 210.84786,-23.7387 c -5.70424,-5.7042 -1.87323,-15.3636 6.09338,-15.3636 7.13743,0 11.32246,5.2818 9.22375,11.6409 -2.21041,6.6976 -10.36124,8.6786 -15.31713,3.7227 z m -182,-60.99996 C 730.72611,968.45338 734.64171,959 743,959 c 3.0101,0 4.73939,0.64848 6.54545,2.45455 C 751.35152,963.26061 752,964.9899 752,968 c 0,8.35829 -9.45338,12.27389 -15.36364,6.36364 z"
       id="path177"
       inkscape:export-filename="path177.png"
       inkscape:export-xdpi="96"
       inkscape:export-ydpi="96" />
  </g>
</svg>
